HIERARCHY
ROOT Hips
{
  OFFSET 16.873 39.7365 -4.00522
  CHANNELS 6 Xposition Yposition Zposition Zrotation Xrotation Yrotation
  JOINT LeftHip
  {
    OFFSET 3.43 0 1.11022e-015
    CHANNELS 3 Zrotation Xrotation Yrotation
    JOINT LeftKnee
    {
      OFFSET -1.84741e-013 -18.47 1.22125e-014
      CHANNELS 3 Zrotation Xrotation Yrotation
      JOINT LeftAnkle
      {
        OFFSET -4.88143e-012 -17.95 -5.52003e-013
        CHANNELS 3 Zrotation Xrotation Yrotation
        End Site
        {
          OFFSET 0 -3.12 0
        }
      }
    }
  }
  JOINT RightHip
  {
    OFFSET -3.43 -1.42109e-014 1.77636e-015
    CHANNELS 3 Zrotation Xrotation Yrotation
    JOINT RightKnee
    {
      OFFSET 7.81597e-014 -18.47 7.37188e-014
      CHANNELS 3 Zrotation Xrotation Yrotation
      JOINT RightAnkle
      {
        OFFSET 1.35003e-012 -17.95 1.09779e-012
        CHANNELS 3 Zrotation Xrotation Yrotation
        End Site
        {
          OFFSET 0 -3.12 0
        }
      }
    }
  }
  JOINT Chest
  {
    OFFSET 6.03961e-014 4.57 4.88498e-015
    CHANNELS 3 Zrotation Xrotation Yrotation
    JOINT Chest2
    {
      OFFSET 0 6.57 -1.9984e-015
      CHANNELS 3 Zrotation Xrotation Yrotation
      JOINT LeftCollar
      {
        OFFSET 1.06 4.19 1.76
        CHANNELS 3 Zrotation Xrotation Yrotation
        JOINT LeftShoulder
        {
          OFFSET 5.81 -1.42109e-014 -1.77636e-015
          CHANNELS 3 Zrotation Xrotation Yrotation
          JOINT LeftElbow
          {
            OFFSET 9.23706e-014 -12.08 -1.42109e-014
            CHANNELS 3 Zrotation Xrotation Yrotation
            JOINT LeftWrist
            {
              OFFSET 2.98428e-013 -9.82 -6.21725e-015
              CHANNELS 3 Zrotation Xrotation Yrotation
              End Site
              {
                OFFSET 0 -7.37 0
              }
            }
          }
        }
      }
      JOINT RightCollar
      {
        OFFSET -1.06 4.19 1.76
        CHANNELS 3 Zrotation Xrotation Yrotation
        JOINT RightShoulder
        {
          OFFSET -6.06 -7.10543e-015 1.11022e-016
          CHANNELS 3 Zrotation Xrotation Yrotation
          JOINT RightElbow
          {
            OFFSET -2.13163e-014 -11.08 1.5854e-013
            CHANNELS 3 Zrotation Xrotation Yrotation
            JOINT RightWrist
            {
              OFFSET -2.20268e-013 -9.82 2.81553e-013
              CHANNELS 3 Zrotation Xrotation Yrotation
              End Site
              {
                OFFSET 0 -7.14001 0
              }
            }
          }
        }
      }
      JOINT Neck
      {
        OFFSET 0 4.05 -3.10862e-015
        CHANNELS 3 Zrotation Xrotation Yrotation
        JOINT Head
        {
          OFFSET -7.10543e-015 5.19 -3.55271e-015
          CHANNELS 3 Zrotation Xrotation Yrotation
          End Site
          {
            OFFSET 0 4.14001 0
          }
        }
      }
    }
  }
}
MOTION
Frames:	15
Frame Time:	0.0333333
-1.16604 39.7383 1.13937 1.35255 -7.01182 -12.7141 0.312944 -9.55247 2.8994 -3.3675 20.2139 10.9461 1.62593 -32.3759 0.472035 -2.77196 -3.28592 -6.94982 0.128284 25.3936 -37.7587 9.62677 -33.3427 2.88911 1.00634 7.80408 -1.8685 1.39903 8.13172 -3.66444 -14.3558 0.412667 -2.41947 35.2161 8.73496 -14.8156 -7.03098 -46.5507 -5.11651 7.83185 11.1663 -17.7483 15.0768 0.268113 -0.0987526 -46.2712 3.65663 18.7311 -0.0820319 -58.5058 -0.069948 -7.07241 6.86953 21.2601 -1.53252 7.98806 -2.84486 1.28922 10.9542 -3.3216 
-1.19068 39.7876 0.908902 1.67332 -7.00385 -11.7013 0.918416 -9.5816 4.19451 -3.68739 20.1049 14.6032 2.21321 -32.0296 0.635319 -2.62678 -3.27129 -6.9017 0.194595 24.9381 -38.8262 9.31783 -33.6688 2.82498 0.920996 7.90424 -1.69056 1.46061 8.35984 -3.37224 -13.4339 0.373021 -2.29849 33.8282 7.72992 -15.3111 -7.11727 -46.3587 -5.16322 7.44079 11.1706 -19.0633 15.6608 0.246253 -0.215827 -46.8987 3.57492 19.0077 -0.00107069 -58.7838 -0.000915675 -8.61815 5.02302 21.7217 -0.711999 7.7897 -4.07296 0.494322 11.1126 -3.97324 
-1.21882 39.8158 0.760173 1.84932 -7.07713 -11.1157 1.96126 -9.58333 5.49191 -4.0896 21.0536 18.825 2.34683 -32.7739 0.690216 -2.87783 -3.15909 -7.31461 0.679895 24.6261 -38.8066 8.7459 -33.7453 2.65734 0.832775 7.92875 -1.42485 1.30555 8.39749 -2.91083 -12.654 0.347043 -2.23452 32.5091 7.14579 -15.1801 -6.95352 -46.2557 -5.03526 6.84791 10.9533 -19.82 17.223 0.246815 -0.19745 -48.9767 3.31993 20.4201 0.755478 -58.4221 0.643624 -9.18594 5.94844 21.681 0.122025 7.82643 -5.10152 0.192762 11.1794 -4.69385 
-1.25102 39.8567 0.65395 2.0118 -7.10838 -10.782 2.84986 -9.32382 6.57836 -4.28008 21.3347 22.2305 2.38656 -30.7661 0.656698 -3.00211 -2.9445 -7.49267 0.94977 24.0811 -38.4982 8.15724 -33.5767 2.4648 0.891196 7.8643 -1.4309 1.43447 8.30739 -2.90192 -12.4593 0.246801 -1.60719 31.6493 6.85323 -15.2398 -6.90182 -46.1703 -4.99054 6.68097 10.6445 -20.8262 16.4298 0.248104 -0.198125 -47.9075 2.57689 21.0414 1.45784 -56.699 1.21854 -8.3121 6.21113 22.1087 -0.269706 7.92996 -5.3875 0.385959 11.2669 -5.19652 
-1.31025 39.8512 0.602366 2.03178 -7.19813 -10.4171 3.82203 -9.12823 7.30346 -4.11658 22.5606 25.792 1.56623 -29.5494 0.413101 -2.50105 -2.85947 -6.97307 0.435584 24.078 -39.2885 8.45152 -33.3024 2.53191 0.919122 7.72356 -1.43043 1.43183 8.15318 -2.86307 -12.7888 0.281082 -1.79596 31.9434 7.7866 -14.9066 -6.72788 -47.395 -4.96242 6.06158 10.8138 -19.5206 16.7267 0.243363 -0.220057 -47.9364 2.43165 21.6372 2.20918 -55.1476 1.81321 -7.39623 7.85287 21.8155 -0.259429 8.18891 -5.74356 0.384343 11.2688 -5.54686 
-1.34242 39.8542 0.58299 2.01023 -7.22559 -10.0398 4.75896 -8.92936 7.84943 -3.85036 23.6579 27.696 1.28557 -26.7243 0.30538 -2.5587 -2.8493 -7.24076 0.813936 24.0068 -38.902 8.01423 -33.6557 2.42748 1.01834 7.62847 -1.66237 1.69027 7.8687 -3.21299 -13.7973 0.30864 -1.86445 32.4864 8.25882 -14.621 -6.60245 -47.7523 -4.89722 6.36137 10.5971 -19.5722 15.7362 0.248203 -0.204365 -46.5042 1.60076 22.06 2.97703 -52.7999 2.37207 -7.04615 8.14562 21.3246 -0.881623 8.04028 -5.45519 0.505054 11.5756 -5.54144 
-1.36535 39.8341 0.612487 1.98042 -7.33535 -9.65719 5.64469 -8.43796 8.01231 -3.44938 24.8216 28.3493 0.812515 -24.1409 0.173753 -2.32009 -2.86809 -7.11931 0.696146 24.3274 -39.8935 8.40174 -34.291 2.59623 1.05031 7.43609 -1.71555 1.7666 7.64364 -3.25066 -13.6223 0.305509 -1.8632 32.4235 8.67303 -14.9161 -6.71185 -47.9458 -4.99386 6.51058 10.3959 -19.3594 16.2959 0.253274 -0.171905 -46.5403 2.12534 22.4699 3.58542 -51.3091 2.79995 -7.55275 8.53371 22.2654 -0.69076 8.15661 -5.57352 0.11039 11.5056 -5.44374 
-1.35008 39.8299 0.656814 1.93823 -7.39762 -9.28008 6.13333 -7.85224 7.84118 -3.00986 25.3788 28.6415 0.699879 -21.3513 0.131937 -2.26511 -2.7377 -6.99216 0.464017 24.2462 -39.7248 8.50571 -33.4242 2.55807 1.27558 7.31539 -1.84463 1.87571 7.34326 -3.35913 -13.8235 0.320467 -1.93314 32.4273 8.43146 -14.8988 -6.67154 -47.4353 -4.92385 6.30276 10.6635 -19.8451 16.0612 0.246198 -0.211927 -45.871 2.41405 22.3713 3.91687 -49.5095 2.98079 -6.26694 7.96888 22.5681 -1.04273 8.07888 -5.36389 0.323692 11.5325 -5.42244 
-1.33112 39.8169 0.724689 1.97681 -7.41561 -8.96392 6.42783 -7.024 7.67981 -2.42597 25.5647 28.9185 0.310542 -18.8091 0.0514354 -2.30763 -2.90851 -7.13528 0.561174 24.6278 -40.5166 8.84252 -34.5135 2.75175 1.20775 7.08066 -1.97682 1.9072 7.03106 -3.53219 -13.6009 0.290296 -1.7725 32.3661 8.50969 -15.0688 -6.7847 -47.1279 -4.9831 6.51669 10.6319 -19.8606 16.5431 0.25472 -0.162284 -45.842 3.10142 22.6564 4.2657 -48.4265 3.19379 -5.73749 8.47002 22.2009 -0.861161 8.27936 -4.99598 0.151031 11.5631 -4.96588 
-1.29719 39.8257 0.82452 1.86029 -7.361 -8.69358 6.57457 -5.98079 7.34041 -1.89922 25.0007 28.3862 0.195284 -15.6769 0.0268841 -2.13255 -2.63248 -7.02416 0.492047 24.3447 -40.7689 9.01367 -34.5277 2.80643 1.49498 6.79724 -2.1356 2.20501 6.63057 -3.68123 -13.845 0.292475 -1.76227 32.462 8.58479 -15.2365 -6.83418 -46.658 -4.98141 5.99643 10.6689 -19.9912 15.1663 0.285553 -0.000227404 -43.6308 4.33282 22.188 4.11489 -47.1149 3.01746 -5.95564 8.39824 23.5779 -1.31796 8.37061 -4.72991 0.41099 11.878 -4.83916 
-1.23631 39.8281 0.924429 1.54418 -7.19215 -8.32503 6.78231 -5.12636 6.87265 -1.64463 24.0366 27.3173 -0.268654 -13.6062 -0.0320499 -1.94325 -2.36639 -7.07113 0.554581 23.7836 -40.3893 8.7969 -33.2468 2.63109 1.82431 6.51017 -2.27927 2.34244 6.13566 -3.78984 -13.6089 0.290047 -1.77021 32.2448 8.38667 -15.573 -6.96238 -46.3385 -5.04864 6.21999 10.5488 -20.1024 16.6686 0.258419 -0.141992 -45.7265 5.05937 23.1236 4.68501 -46.6422 3.40996 -5.68122 7.24626 23.0083 -1.20986 8.57101 -4.37835 0.528827 12.0316 -4.56295 
-1.15365 39.8051 1.03352 1.16912 -7.04495 -8.1949 7.26181 -4.3174 6.94926 -1.90464 22.9296 26.951 -1.60527 -13.5734 -0.191052 -1.71336 -2.40217 -6.99257 0.526103 23.8585 -40.8097 9.18861 -33.3726 2.75971 2.36586 6.27652 -2.48311 2.80225 5.74708 -3.9948 -13.6893 0.299675 -1.82096 32.151 8.41056 -15.8634 -6.98869 -46.2036 -5.05646 6.05054 10.0455 -19.961 15.4049 0.334754 0.273159 -44.0051 6.19836 22.3741 4.33997 -45.8976 3.11941 -5.36294 8.29049 24.4292 -1.77744 8.56912 -3.88284 0.401938 12.368 -4.0863 
-1.05423 39.7884 1.12757 0.887763 -6.66585 -8.08517 7.77558 -3.75071 7.46739 -2.44857 21.4014 28.2915 -3.28856 -14.1921 -0.409493 -1.39425 -2.71415 -6.64357 0.396959 23.8518 -40.7785 9.36288 -33.2764 2.80368 2.61591 5.90336 -2.54813 3.09034 5.18218 -4.02942 -13.2874 0.292049 -1.81432 31.7508 8.58821 -16.0934 -6.94549 -46.7275 -5.06868 6.08108 10.4577 -19.5755 16.2078 0.343858 0.311222 -44.9595 7.09316 22.4198 4.41923 -45.6375 3.1625 -5.19555 8.83436 24.579 -1.51309 8.95888 -3.6714 -0.230801 12.3441 -3.56848 
-0.924053 39.814 1.22365 0.797239 -6.48905 -7.88442 7.3791 -3.30478 6.90626 -1.97228 20.213 29.3732 -4.21923 -13.945 -0.516231 -1.41663 -2.63408 -6.55965 0.402133 23.4174 -40.2569 9.24298 -33.2232 2.76295 2.72588 5.80166 -2.68492 3.41238 4.91291 -4.22707 -14.1237 0.32078 -1.9041 32.5641 8.21914 -16.2499 -6.99975 -47.1254 -5.14156 6.11899 10.3498 -19.2423 16.0651 0.324063 0.20691 -44.8949 7.00991 22.3938 4.48692 -44.8303 3.16658 -5.21949 8.68631 24.8188 -1.93827 8.64839 -3.166 0.463663 12.7671 -3.43469 
-0.785015 39.8499 1.30818 0.832712 -6.44466 -7.62911 6.71382 -3.20662 6.13688 -1.477 19.8947 29.3516 -4.1497 -13.6434 -0.49663 -1.4139 -2.35424 -6.36028 0.0111011 22.9017 -40.6991 9.56986 -32.7873 2.82141 2.78529 5.76052 -2.80253 3.49605 4.80229 -4.37772 -14.4458 0.326099 -1.90301 33.0187 7.66121 -16.5621 -7.10219 -47.4544 -5.24473 6.15926 10.2216 -19.2259 15.9469 0.322577 0.200064 -44.6263 7.07154 21.9986 4.39128 -44.2516 3.06736 -5.32105 8.47792 24.8653 -2.1581 8.6273 -2.81043 0.893759 12.7005 -3.28058 
